# MagicaVoxel @ Ephtracy

# group
o 

# material
mtllib Knight.mtl
usemtl palette

# normals
vn -1 0 0
vn 1 0 0
vn 0 0 1
vn 0 0 -1
vn 0 -1 0
vn 0 1 0

# texcoords
vt 0.0332031 0.5
vt 0.0449219 0.5
vt 0.845703 0.5
vt 0.986328 0.5
vt 0.990234 0.5
vt 0.994141 0.5

# verts
v -1 0.9 0.2
v -1 0.9 0
v -1 1.1 0.2
v -1 1.1 0
v -0.6 1.5 0.4
v -0.6 1.5 0
v -0.6 1.7 0.4
v -0.6 1.7 0
v -0.4 -0.1 0.4
v -0.4 -0.1 0
v -0.4 0.1 0.4
v -0.4 0.1 0.2
v -0.4 0.1 0
v -0.4 0.5 0.4
v -0.4 0.5 0.2
v -0.4 0.5 0
v -0.4 0.5 -0.2
v -0.4 0.7 0.4
v -0.4 0.7 0.2
v -0.4 0.7 0
v -0.4 0.7 -0.2
v -0.4 0.9 0.4
v -0.4 0.9 0.2
v -0.4 0.9 0
v -0.4 0.9 -0.2
v -0.4 1.1 0.4
v -0.4 1.1 0.2
v -0.4 1.1 0
v -0.4 1.1 -0.2
v -0.4 1.3 0.4
v -0.4 1.3 -0.2
v -0.4 1.5 0.4
v -0.4 1.5 0
v -0.4 1.7 0.4
v -0.4 1.7 0
v -0.4 1.9 0.4
v -0.4 1.9 0.2
v -0.4 1.9 0
v -0.4 1.9 -0.2
v -0.4 2.1 0.2
v -0.4 2.1 0
v -0.2 1.1 0.2
v -0.2 1.1 0
v -0.2 1.3 0.2
v -0.2 1.3 0
v -0.2 2.1 0.2
v -0.2 2.1 0
v -0.2 2.3 0.2
v -0.2 2.3 0
v 0 -0.1 0.4
v 0 -0.1 0
v 0 0.1 0.4
v 0 0.1 0.2
v 0 0.1 0
v 0 0.5 0.2
v 0 0.5 0
v 0 2.3 0.2
v 0 2.3 0
v 0 2.5 0.2
v 0 2.5 0
v 0.2 1.5 0.4
v 0.2 1.5 0.2
v 0.2 1.7 0.4
v 0.2 1.7 0.2
v -0.4 1.5 0.4
v -0.4 1.5 0.2
v -0.4 1.7 0.4
v -0.4 1.7 0.2
v -0.2 -0.1 0.4
v -0.2 -0.1 0
v -0.2 0.1 0.4
v -0.2 0.1 0.2
v -0.2 0.1 0
v -0.2 0.5 0.2
v -0.2 0.5 0
v 0 1.1 0.2
v 0 1.1 0
v 0 1.3 0.2
v 0 1.3 0
v 0.2 -0.1 0.4
v 0.2 -0.1 0
v 0.2 0.1 0.4
v 0.2 0.1 0.2
v 0.2 0.1 0
v 0.2 0.5 0.4
v 0.2 0.5 0.2
v 0.2 0.5 0
v 0.2 0.5 -0.2
v 0.2 0.7 0.4
v 0.2 0.7 0.2
v 0.2 0.7 0
v 0.2 0.7 -0.2
v 0.2 0.9 0.4
v 0.2 0.9 0.2
v 0.2 0.9 0
v 0.2 0.9 -0.2
v 0.2 1.1 0.4
v 0.2 1.1 0.2
v 0.2 1.1 0
v 0.2 1.1 -0.2
v 0.2 1.3 0.4
v 0.2 1.3 -0.2
v 0.2 1.5 0.4
v 0.2 1.5 0
v 0.2 1.7 0.4
v 0.2 1.7 0
v 0.2 1.9 0.4
v 0.2 1.9 0.2
v 0.2 1.9 0
v 0.2 1.9 -0.2
v 0.2 2.1 0.2
v 0.2 2.1 0
v 0.2 2.5 0.2
v 0.2 2.5 0
v 0.4 1.5 0.4
v 0.4 1.5 0
v 0.4 1.7 0.4
v 0.4 1.7 0
v 0.8 0.9 0.2
v 0.8 0.9 0
v 0.8 1.1 0.2
v 0.8 1.1 0
v -0.6 1.5 0.4
v -0.6 1.7 0.4
v -0.4 -0.1 0.4
v -0.4 0.1 0.4
v -0.4 0.5 0.4
v -0.4 0.7 0.4
v -0.4 0.9 0.4
v -0.4 1.1 0.4
v -0.4 1.3 0.4
v -0.4 1.5 0.4
v -0.4 1.7 0.4
v -0.4 1.9 0.4
v -0.2 -0.1 0.4
v -0.2 0.1 0.4
v -0.2 0.5 0.4
v -0.2 0.7 0.4
v -0.2 0.9 0.4
v -0.2 1.1 0.4
v -0.2 1.3 0.4
v -0.2 1.5 0.4
v 0 -0.1 0.4
v 0 0.1 0.4
v 0 0.5 0.4
v 0 0.7 0.4
v 0 0.9 0.4
v 0 1.1 0.4
v 0 1.3 0.4
v 0 1.5 0.4
v 0.2 -0.1 0.4
v 0.2 0.1 0.4
v 0.2 0.5 0.4
v 0.2 0.7 0.4
v 0.2 0.9 0.4
v 0.2 1.1 0.4
v 0.2 1.3 0.4
v 0.2 1.5 0.4
v 0.2 1.7 0.4
v 0.2 1.9 0.4
v 0.4 1.5 0.4
v 0.4 1.7 0.4
v -1 0.9 0.2
v -1 1.1 0.2
v -0.8 0.9 0.2
v -0.8 1.1 0.2
v -0.4 0.1 0.2
v -0.4 0.5 0.2
v -0.4 0.9 0.2
v -0.4 1.1 0.2
v -0.4 1.5 0.2
v -0.4 1.7 0.2
v -0.4 1.9 0.2
v -0.4 2.1 0.2
v -0.2 0.1 0.2
v -0.2 0.5 0.2
v -0.2 1.1 0.2
v -0.2 1.3 0.2
v -0.2 1.5 0.2
v -0.2 1.7 0.2
v -0.2 2.1 0.2
v -0.2 2.3 0.2
v 0 0.1 0.2
v 0 0.5 0.2
v 0 1.1 0.2
v 0 1.3 0.2
v 0 1.5 0.2
v 0 1.7 0.2
v 0 2.3 0.2
v 0 2.5 0.2
v 0.2 0.1 0.2
v 0.2 0.5 0.2
v 0.2 0.9 0.2
v 0.2 1.1 0.2
v 0.2 1.5 0.2
v 0.2 1.7 0.2
v 0.2 1.9 0.2
v 0.2 2.1 0.2
v 0.2 2.5 0.2
v 0.6 0.9 0.2
v 0.6 1.1 0.2
v 0.8 0.9 0.2
v 0.8 1.1 0.2
v -1 0.9 0
v -1 1.1 0
v -0.8 0.9 0
v -0.8 1.1 0
v -0.6 1.5 0
v -0.6 1.7 0
v -0.4 -0.1 0
v -0.4 0.1 0
v -0.4 0.5 0
v -0.4 0.9 0
v -0.4 1.1 0
v -0.4 1.5 0
v -0.4 1.7 0
v -0.4 1.9 0
v -0.4 2.1 0
v -0.2 -0.1 0
v -0.2 0.1 0
v -0.2 0.5 0
v -0.2 1.1 0
v -0.2 1.3 0
v -0.2 2.1 0
v -0.2 2.3 0
v 0 -0.1 0
v 0 0.1 0
v 0 0.5 0
v 0 1.1 0
v 0 1.3 0
v 0 2.3 0
v 0 2.5 0
v 0.2 -0.1 0
v 0.2 0.1 0
v 0.2 0.5 0
v 0.2 0.9 0
v 0.2 1.1 0
v 0.2 1.5 0
v 0.2 1.7 0
v 0.2 1.9 0
v 0.2 2.1 0
v 0.2 2.5 0
v 0.4 1.5 0
v 0.4 1.7 0
v 0.6 0.9 0
v 0.6 1.1 0
v 0.8 0.9 0
v 0.8 1.1 0
v -0.4 0.5 -0.2
v -0.4 0.7 -0.2
v -0.4 0.9 -0.2
v -0.4 1.1 -0.2
v -0.4 1.3 -0.2
v -0.4 1.9 -0.2
v -0.2 0.5 -0.2
v -0.2 0.7 -0.2
v -0.2 0.9 -0.2
v -0.2 1.1 -0.2
v 0 0.5 -0.2
v 0 0.7 -0.2
v 0 0.9 -0.2
v 0 1.1 -0.2
v 0.2 0.5 -0.2
v 0.2 0.7 -0.2
v 0.2 0.9 -0.2
v 0.2 1.1 -0.2
v 0.2 1.3 -0.2
v 0.2 1.9 -0.2
v -0.4 -0.1 0.4
v -0.2 -0.1 0.4
v 0 -0.1 0.4
v 0.2 -0.1 0.4
v -0.4 -0.1 0
v -0.2 -0.1 0
v 0 -0.1 0
v 0.2 -0.1 0
v -0.4 0.5 0.4
v -0.2 0.5 0.4
v 0 0.5 0.4
v 0.2 0.5 0.4
v -0.4 0.5 0.2
v -0.2 0.5 0.2
v 0 0.5 0.2
v 0.2 0.5 0.2
v -0.4 0.5 0
v -0.2 0.5 0
v 0 0.5 0
v 0.2 0.5 0
v -0.4 0.5 -0.2
v -0.2 0.5 -0.2
v 0 0.5 -0.2
v 0.2 0.5 -0.2
v -1 0.9 0.2
v -0.8 0.9 0.2
v -0.4 0.9 0.2
v 0.2 0.9 0.2
v 0.6 0.9 0.2
v 0.8 0.9 0.2
v -1 0.9 0
v -0.8 0.9 0
v -0.4 0.9 0
v 0.2 0.9 0
v 0.6 0.9 0
v 0.8 0.9 0
v -0.4 1.3 0.4
v -0.2 1.3 0.4
v 0 1.3 0.4
v 0.2 1.3 0.4
v -0.2 1.3 0.2
v 0 1.3 0.2
v -0.2 1.3 0
v 0 1.3 0
v -0.4 1.3 -0.2
v 0.2 1.3 -0.2
v -0.6 1.5 0.4
v -0.4 1.5 0.4
v 0.2 1.5 0.4
v 0.4 1.5 0.4
v -0.6 1.5 0
v -0.4 1.5 0
v 0.2 1.5 0
v 0.4 1.5 0
v -0.4 1.7 0.4
v 0.2 1.7 0.4
v -0.4 1.7 0.2
v -0.2 1.7 0.2
v 0 1.7 0.2
v 0.2 1.7 0.2
v -0.4 0.1 0.4
v -0.2 0.1 0.4
v 0 0.1 0.4
v 0.2 0.1 0.4
v -0.4 0.1 0.2
v -0.2 0.1 0.2
v 0 0.1 0.2
v 0.2 0.1 0.2
v -0.4 1.1 0.4
v -0.2 1.1 0.4
v 0 1.1 0.4
v 0.2 1.1 0.4
v -1 1.1 0.2
v -0.8 1.1 0.2
v -0.4 1.1 0.2
v -0.2 1.1 0.2
v 0 1.1 0.2
v 0.2 1.1 0.2
v 0.6 1.1 0.2
v 0.8 1.1 0.2
v -1 1.1 0
v -0.8 1.1 0
v -0.4 1.1 0
v -0.2 1.1 0
v 0 1.1 0
v 0.2 1.1 0
v 0.6 1.1 0
v 0.8 1.1 0
v -0.4 1.1 -0.2
v -0.2 1.1 -0.2
v 0 1.1 -0.2
v 0.2 1.1 -0.2
v -0.4 1.5 0.4
v -0.2 1.5 0.4
v 0 1.5 0.4
v 0.2 1.5 0.4
v -0.4 1.5 0.2
v -0.2 1.5 0.2
v 0 1.5 0.2
v 0.2 1.5 0.2
v -0.6 1.7 0.4
v -0.4 1.7 0.4
v 0.2 1.7 0.4
v 0.4 1.7 0.4
v -0.6 1.7 0
v -0.4 1.7 0
v 0.2 1.7 0
v 0.4 1.7 0
v -0.4 1.9 0.4
v 0.2 1.9 0.4
v -0.4 1.9 0.2
v 0.2 1.9 0.2
v -0.4 1.9 0
v 0.2 1.9 0
v -0.4 1.9 -0.2
v 0.2 1.9 -0.2
v -0.4 2.1 0.2
v -0.2 2.1 0.2
v -0.4 2.1 0
v -0.2 2.1 0
v -0.2 2.3 0.2
v 0 2.3 0.2
v -0.2 2.3 0
v 0 2.3 0
v 0 2.5 0.2
v 0.2 2.5 0.2
v 0 2.5 0
v 0.2 2.5 0

# faces
f 3/4/1 2/4/1 1/4/1
f 4/4/1 2/4/1 3/4/1
f 7/5/1 6/5/1 5/5/1
f 8/5/1 6/5/1 7/5/1
f 11/4/1 10/4/1 9/4/1
f 12/4/1 10/4/1 11/4/1
f 13/4/1 10/4/1 12/4/1
f 15/5/1 13/5/1 12/5/1
f 16/5/1 13/5/1 15/5/1
f 18/5/1 15/5/1 14/5/1
f 19/2/1 16/2/1 15/2/1
f 19/5/1 15/5/1 18/5/1
f 20/5/1 17/5/1 16/5/1
f 20/2/1 16/2/1 19/2/1
f 21/5/1 17/5/1 20/5/1
f 22/2/1 19/2/1 18/2/1
f 23/5/1 20/5/1 19/5/1
f 23/2/1 19/2/1 22/2/1
f 24/2/1 21/2/1 20/2/1
f 24/5/1 20/5/1 23/5/1
f 25/2/1 21/2/1 24/2/1
f 26/5/1 23/5/1 22/5/1
f 27/5/1 23/5/1 26/5/1
f 28/5/1 25/5/1 24/5/1
f 29/5/1 25/5/1 28/5/1
f 32/5/1 31/5/1 30/5/1
f 33/5/1 31/5/1 32/5/1
f 35/5/1 31/5/1 33/5/1
f 36/5/1 35/5/1 34/5/1
f 37/5/1 35/5/1 36/5/1
f 38/5/1 31/5/1 35/5/1
f 38/5/1 35/5/1 37/5/1
f 39/5/1 31/5/1 38/5/1
f 40/5/1 38/5/1 37/5/1
f 41/5/1 38/5/1 40/5/1
f 44/5/1 43/5/1 42/5/1
f 45/5/1 43/5/1 44/5/1
f 48/3/1 47/3/1 46/3/1
f 49/3/1 47/3/1 48/3/1
f 52/4/1 51/4/1 50/4/1
f 53/4/1 51/4/1 52/4/1
f 54/4/1 51/4/1 53/4/1
f 55/5/1 54/5/1 53/5/1
f 56/5/1 54/5/1 55/5/1
f 59/3/1 58/3/1 57/3/1
f 60/3/1 58/3/1 59/3/1
f 63/5/1 62/5/1 61/5/1
f 64/5/1 62/5/1 63/5/1
f 65/5/2 66/5/2 67/5/2
f 67/5/2 66/5/2 68/5/2
f 69/4/2 70/4/2 71/4/2
f 71/4/2 70/4/2 72/4/2
f 72/4/2 70/4/2 73/4/2
f 72/5/2 73/5/2 74/5/2
f 74/5/2 73/5/2 75/5/2
f 76/5/2 77/5/2 78/5/2
f 78/5/2 77/5/2 79/5/2
f 80/4/2 81/4/2 82/4/2
f 82/4/2 81/4/2 83/4/2
f 83/4/2 81/4/2 84/4/2
f 83/5/2 84/5/2 86/5/2
f 86/5/2 84/5/2 87/5/2
f 85/5/2 86/5/2 89/5/2
f 86/2/2 87/2/2 90/2/2
f 89/5/2 86/5/2 90/5/2
f 87/5/2 88/5/2 91/5/2
f 90/2/2 87/2/2 91/2/2
f 91/5/2 88/5/2 92/5/2
f 89/2/2 90/2/2 93/2/2
f 90/5/2 91/5/2 94/5/2
f 93/2/2 90/2/2 94/2/2
f 91/2/2 92/2/2 95/2/2
f 94/5/2 91/5/2 95/5/2
f 95/2/2 92/2/2 96/2/2
f 93/5/2 94/5/2 97/5/2
f 97/5/2 94/5/2 98/5/2
f 95/5/2 96/5/2 99/5/2
f 99/5/2 96/5/2 100/5/2
f 101/5/2 102/5/2 103/5/2
f 103/5/2 102/5/2 104/5/2
f 104/5/2 102/5/2 106/5/2
f 105/5/2 106/5/2 107/5/2
f 107/5/2 106/5/2 108/5/2
f 106/5/2 102/5/2 109/5/2
f 108/5/2 106/5/2 109/5/2
f 109/5/2 102/5/2 110/5/2
f 108/5/2 109/5/2 111/5/2
f 111/5/2 109/5/2 112/5/2
f 111/3/2 112/3/2 113/3/2
f 113/3/2 112/3/2 114/3/2
f 115/5/2 116/5/2 117/5/2
f 117/5/2 116/5/2 118/5/2
f 119/4/2 120/4/2 121/4/2
f 121/4/2 120/4/2 122/4/2
f 132/5/3 124/5/3 123/5/3
f 133/5/3 124/5/3 132/5/3
f 135/4/3 126/4/3 125/4/3
f 136/4/3 126/4/3 135/4/3
f 137/5/3 128/5/3 127/5/3
f 138/2/3 129/2/3 128/2/3
f 138/5/3 128/5/3 137/5/3
f 139/5/3 130/5/3 129/5/3
f 139/2/3 129/2/3 138/2/3
f 140/5/3 130/5/3 139/5/3
f 141/5/3 132/5/3 131/5/3
f 142/5/3 132/5/3 141/5/3
f 145/2/3 138/2/3 137/2/3
f 146/5/3 139/5/3 138/5/3
f 146/2/3 138/2/3 145/2/3
f 147/2/3 140/2/3 139/2/3
f 147/5/3 139/5/3 146/5/3
f 148/2/3 140/2/3 147/2/3
f 149/2/3 142/2/3 141/2/3
f 150/2/3 142/2/3 149/2/3
f 151/4/3 144/4/3 143/4/3
f 152/4/3 144/4/3 151/4/3
f 153/5/3 146/5/3 145/5/3
f 154/2/3 147/2/3 146/2/3
f 154/5/3 146/5/3 153/5/3
f 155/5/3 148/5/3 147/5/3
f 155/2/3 147/2/3 154/2/3
f 156/5/3 148/5/3 155/5/3
f 157/5/3 150/5/3 149/5/3
f 158/5/3 150/5/3 157/5/3
f 159/5/3 134/5/3 133/5/3
f 160/5/3 134/5/3 159/5/3
f 161/5/3 159/5/3 158/5/3
f 162/5/3 159/5/3 161/5/3
f 165/4/3 164/4/3 163/4/3
f 166/4/3 164/4/3 165/4/3
f 169/5/3 166/5/3 165/5/3
f 170/5/3 166/5/3 169/5/3
f 175/5/3 168/5/3 167/5/3
f 176/5/3 168/5/3 175/5/3
f 179/6/3 172/6/3 171/6/3
f 180/6/3 172/6/3 179/6/3
f 181/5/3 174/5/3 173/5/3
f 185/5/3 178/5/3 177/5/3
f 186/5/3 178/5/3 185/5/3
f 187/1/3 180/1/3 179/1/3
f 188/1/3 180/1/3 187/1/3
f 189/3/3 182/3/3 181/3/3
f 191/5/3 184/5/3 183/5/3
f 192/5/3 184/5/3 191/5/3
f 195/6/3 188/6/3 187/6/3
f 196/6/3 188/6/3 195/6/3
f 197/5/3 181/5/3 173/5/3
f 198/3/3 190/3/3 189/3/3
f 198/5/3 181/5/3 197/5/3
f 198/3/3 189/3/3 181/3/3
f 199/3/3 190/3/3 198/3/3
f 200/5/3 194/5/3 193/5/3
f 201/5/3 194/5/3 200/5/3
f 202/4/3 201/4/3 200/4/3
f 203/4/3 201/4/3 202/4/3
f 204/4/4 205/4/4 206/4/4
f 206/4/4 205/4/4 207/4/4
f 206/5/4 207/5/4 213/5/4
f 213/5/4 207/5/4 214/5/4
f 208/5/4 209/5/4 215/5/4
f 215/5/4 209/5/4 216/5/4
f 210/4/4 211/4/4 219/4/4
f 211/5/4 212/5/4 220/5/4
f 219/4/4 211/4/4 220/4/4
f 220/5/4 212/5/4 221/5/4
f 217/5/4 218/5/4 224/5/4
f 222/5/4 223/5/4 229/5/4
f 229/5/4 223/5/4 230/5/4
f 224/3/4 225/3/4 231/3/4
f 226/4/4 227/4/4 233/4/4
f 227/5/4 228/5/4 234/5/4
f 233/4/4 227/4/4 234/4/4
f 234/5/4 228/5/4 235/5/4
f 217/5/4 224/5/4 240/5/4
f 231/3/4 232/3/4 241/3/4
f 240/5/4 224/5/4 241/5/4
f 224/3/4 231/3/4 241/3/4
f 241/3/4 232/3/4 242/3/4
f 238/5/4 239/5/4 243/5/4
f 243/5/4 239/5/4 244/5/4
f 236/5/4 237/5/4 245/5/4
f 245/5/4 237/5/4 246/5/4
f 245/4/4 246/4/4 247/4/4
f 247/4/4 246/4/4 248/4/4
f 249/5/4 250/5/4 255/5/4
f 250/2/4 251/2/4 256/2/4
f 255/5/4 250/5/4 256/5/4
f 251/5/4 252/5/4 257/5/4
f 256/2/4 251/2/4 257/2/4
f 257/5/4 252/5/4 258/5/4
f 255/2/4 256/2/4 259/2/4
f 256/5/4 257/5/4 260/5/4
f 259/2/4 256/2/4 260/2/4
f 257/2/4 258/2/4 261/2/4
f 260/5/4 257/5/4 261/5/4
f 261/2/4 258/2/4 262/2/4
f 259/5/4 260/5/4 263/5/4
f 260/2/4 261/2/4 264/2/4
f 263/5/4 260/5/4 264/5/4
f 261/5/4 262/5/4 265/5/4
f 264/2/4 261/2/4 265/2/4
f 265/5/4 262/5/4 266/5/4
f 253/5/4 254/5/4 267/5/4
f 267/5/4 254/5/4 268/5/4
f 273/4/5 270/4/5 269/4/5
f 274/4/5 270/4/5 273/4/5
f 275/4/5 272/4/5 271/4/5
f 276/4/5 272/4/5 275/4/5
f 281/5/5 278/5/5 277/5/5
f 282/2/5 279/2/5 278/2/5
f 282/5/5 278/5/5 281/5/5
f 283/5/5 280/5/5 279/5/5
f 283/2/5 279/2/5 282/2/5
f 284/5/5 280/5/5 283/5/5
f 286/5/5 283/5/5 282/5/5
f 287/5/5 283/5/5 286/5/5
f 289/5/5 286/5/5 285/5/5
f 290/2/5 287/2/5 286/2/5
f 290/5/5 286/5/5 289/5/5
f 291/5/5 288/5/5 287/5/5
f 291/2/5 287/2/5 290/2/5
f 292/5/5 288/5/5 291/5/5
f 299/4/5 294/4/5 293/4/5
f 300/5/5 295/5/5 294/5/5
f 300/4/5 294/4/5 299/4/5
f 301/5/5 295/5/5 300/5/5
f 302/5/5 297/5/5 296/5/5
f 303/4/5 298/4/5 297/4/5
f 303/5/5 297/5/5 302/5/5
f 304/4/5 298/4/5 303/4/5
f 309/5/5 306/5/5 305/5/5
f 309/2/5 307/2/5 306/2/5
f 310/5/5 308/5/5 307/5/5
f 310/2/5 307/2/5 309/2/5
f 311/5/5 309/5/5 305/5/5
f 312/5/5 308/5/5 310/5/5
f 313/5/5 311/5/5 305/5/5
f 313/5/5 312/5/5 311/5/5
f 314/5/5 308/5/5 312/5/5
f 314/5/5 312/5/5 313/5/5
f 319/5/5 316/5/5 315/5/5
f 320/5/5 316/5/5 319/5/5
f 321/5/5 318/5/5 317/5/5
f 322/5/5 318/5/5 321/5/5
f 325/5/5 324/5/5 323/5/5
f 326/5/5 324/5/5 325/5/5
f 327/5/5 324/5/5 326/5/5
f 328/5/5 324/5/5 327/5/5
f 329/4/6 330/4/6 333/4/6
f 333/4/6 330/4/6 334/4/6
f 331/4/6 332/4/6 335/4/6
f 335/4/6 332/4/6 336/4/6
f 337/5/6 338/5/6 343/5/6
f 338/2/6 339/2/6 344/2/6
f 343/5/6 338/5/6 344/5/6
f 339/5/6 340/5/6 345/5/6
f 344/2/6 339/2/6 345/2/6
f 345/5/6 340/5/6 346/5/6
f 341/4/6 342/4/6 349/4/6
f 342/5/6 343/5/6 350/5/6
f 349/4/6 342/4/6 350/4/6
f 343/2/6 344/2/6 351/2/6
f 350/5/6 343/5/6 351/5/6
f 351/2/6 344/2/6 352/2/6
f 345/2/6 346/2/6 353/2/6
f 346/5/6 347/5/6 354/5/6
f 353/2/6 346/2/6 354/2/6
f 347/4/6 348/4/6 355/4/6
f 354/5/6 347/5/6 355/5/6
f 355/4/6 348/4/6 356/4/6
f 351/5/6 352/5/6 357/5/6
f 352/2/6 353/2/6 358/2/6
f 357/5/6 352/5/6 358/5/6
f 353/5/6 354/5/6 359/5/6
f 358/2/6 353/2/6 359/2/6
f 359/5/6 354/5/6 360/5/6
f 361/5/6 362/5/6 365/5/6
f 362/2/6 363/2/6 366/2/6
f 365/5/6 362/5/6 366/5/6
f 363/5/6 364/5/6 367/5/6
f 366/2/6 363/2/6 367/2/6
f 367/5/6 364/5/6 368/5/6
f 369/5/6 370/5/6 373/5/6
f 373/5/6 370/5/6 374/5/6
f 371/5/6 372/5/6 375/5/6
f 375/5/6 372/5/6 376/5/6
f 377/5/6 378/5/6 379/5/6
f 379/5/6 378/5/6 380/5/6
f 381/5/6 382/5/6 383/5/6
f 383/5/6 382/5/6 384/5/6
f 385/5/6 386/5/6 387/5/6
f 387/5/6 386/5/6 388/5/6
f 389/3/6 390/3/6 391/3/6
f 391/3/6 390/3/6 392/3/6
f 393/3/6 394/3/6 395/3/6
f 395/3/6 394/3/6 396/3/6
